<?xml version="1.0" standalone="no"?>
<!DOCTYPE svg PUBLIC "-//W3C//DTD SVG 20010904//EN"
 "http://www.w3.org/TR/2001/REC-SVG-20010904/DTD/svg10.dtd">
<svg version="1.0" xmlns="http://www.w3.org/2000/svg"
 width="360.000000pt" height="360.000000pt" viewBox="0 0 360.000000 360.000000"
 preserveAspectRatio="xMidYMid meet">

<g transform="translate(0.000000,360.000000) scale(0.100000,-0.100000)"
fill="#000000" stroke="none">
<path d="M345 2441 c-16 -4 -43 -14 -60 -22 -29 -14 -30 -17 -38 -104 -9 -109
-55 -489 -63 -527 l-6 -28 64 0 c87 0 156 -24 383 -132 334 -159 478 -207 732
-245 150 -22 716 -26 858 -5 273 39 420 85 694 216 292 140 341 158 438 164
78 4 82 6 78 26 -10 46 -36 251 -54 428 -10 102 -21 191 -25 196 -3 5 -35 18
-71 27 -51 14 -88 17 -177 12 -178 -8 -309 -46 -638 -185 -119 -50 -288 -88
-483 -109 -129 -13 -174 -14 -295 -4 -252 21 -424 61 -592 136 -247 111 -409
155 -590 161 -69 2 -138 0 -155 -5z"/>
<path d="M188 1703 c-17 -4 -38 -52 -38 -87 0 -35 37 -84 78 -105 21 -11 126
-42 234 -69 224 -57 305 -90 350 -140 l31 -36 -6 45 c-3 24 -9 69 -13 100 -3
31 -9 61 -12 66 -8 13 -256 133 -368 178 -116 47 -200 63 -256 48z"/>
<path d="M3270 1691 c-79 -21 -172 -61 -350 -149 l-135 -67 -6 -40 c-4 -22
-10 -69 -13 -104 l-7 -64 27 32 c48 58 130 90 399 155 83 20 168 47 190 59 52
29 80 80 71 130 -13 71 -53 82 -176 48z"/>
<path d="M558 1329 c-26 -45 -57 -51 -195 -44 l-123 7 -35 -35 c-19 -19 -35
-45 -35 -57 0 -22 0 -22 20 3 45 56 111 54 290 -8 128 -44 230 -56 278 -31 75
39 19 118 -120 170 l-64 24 -16 -29z"/>
<path d="M2956 1332 c-125 -46 -185 -131 -116 -167 51 -26 132 -19 260 24 202
69 245 72 300 21 27 -26 30 -26 30 -8 0 11 -16 36 -35 55 l-35 35 -123 -7
c-137 -7 -168 -1 -195 44 l-17 29 -69 -26z"/>
</g>
</svg>
